<svg width="20" height="20" viewBox="0 0 20 20" fill="none" xmlns="http://www.w3.org/2000/svg">
<path d="M15.6417 11.1335C15.5717 11.0491 15.4858 10.9794 15.3889 10.9282C15.2919 10.8771 15.1858 10.8456 15.0767 10.8355C14.9675 10.8255 14.8575 10.8371 14.7528 10.8696C14.6481 10.9021 14.5509 10.955 14.4667 11.0252L10.8334 14.0502V4.16683C10.8334 3.94582 10.7456 3.73385 10.5893 3.57757C10.433 3.42129 10.221 3.3335 10 3.3335C9.77901 3.3335 9.56705 3.42129 9.41077 3.57757C9.25449 3.73385 9.16669 3.94582 9.16669 4.16683V14.0502L5.53336 11.0252C5.44909 10.9551 5.35186 10.9024 5.2472 10.8699C5.14255 10.8374 5.03253 10.8259 4.92342 10.836C4.81431 10.846 4.70825 10.8775 4.6113 10.9285C4.51435 10.9796 4.4284 11.0492 4.35836 11.1335C4.28832 11.2178 4.23556 11.315 4.2031 11.4196C4.17064 11.5243 4.15911 11.6343 4.16917 11.7434C4.17923 11.8525 4.21068 11.9586 4.26173 12.0556C4.31278 12.1525 4.38243 12.2385 4.46669 12.3085L9.46669 16.4752L9.59169 16.5502L9.70002 16.6085C9.89309 16.683 10.107 16.683 10.3 16.6085L10.4084 16.5502L10.5334 16.4752L15.5334 12.3085C15.6177 12.2385 15.6875 12.1526 15.7386 12.0557C15.7897 11.9587 15.8212 11.8526 15.8313 11.7435C15.8414 11.6343 15.8298 11.5243 15.7973 11.4196C15.7647 11.3149 15.7119 11.2177 15.6417 11.1335Z" fill="white"/>
</svg>
