<svg width="20" height="20" viewBox="0 0 20 20" fill="none" xmlns="http://www.w3.org/2000/svg">
<g clip-path="url(#clip0_731_8011)">
<path d="M4.35833 8.86681C4.42829 8.95119 4.51421 9.02094 4.61116 9.07207C4.70812 9.1232 4.81421 9.15469 4.92336 9.16476C5.0325 9.17482 5.14256 9.16325 5.24723 9.13072C5.3519 9.09818 5.44913 9.04531 5.53333 8.97514L9.16667 5.95014V15.8335C9.16667 16.0545 9.25446 16.2665 9.41074 16.4227C9.56702 16.579 9.77899 16.6668 10 16.6668C10.221 16.6668 10.433 16.579 10.5893 16.4227C10.7455 16.2665 10.8333 16.0545 10.8333 15.8335V5.95014L14.4667 8.97514C14.5509 9.04518 14.6482 9.09794 14.7528 9.1304C14.8575 9.16286 14.9675 9.17439 15.0766 9.16433C15.1857 9.15427 15.2918 9.12282 15.3887 9.07177C15.4857 9.02072 15.5716 8.95108 15.6417 8.86681C15.7117 8.78255 15.7645 8.68531 15.7969 8.58066C15.8294 8.476 15.8409 8.36598 15.8308 8.25687C15.8208 8.14777 15.7893 8.04171 15.7383 7.94475C15.6872 7.8478 15.6176 7.76185 15.5333 7.69181L10.5333 3.52514L10.4083 3.45014L10.3 3.39181C10.1069 3.31731 9.89306 3.31731 9.7 3.39181L9.59167 3.45014L9.46667 3.52514L4.46667 7.69181C4.38228 7.76177 4.31253 7.84768 4.26141 7.94464C4.21028 8.0416 4.17878 8.14769 4.16872 8.25683C4.15866 8.36598 4.17022 8.47604 4.20276 8.58071C4.2353 8.68538 4.28816 8.7826 4.35833 8.86681Z" fill="white"/>
</g>
<defs>
<clipPath id="clip0_731_8011">
<rect width="20" height="20" fill="white"/>
</clipPath>
</defs>
</svg>
