<svg width="32" height="32" viewBox="0 0 32 32" fill="none" xmlns="http://www.w3.org/2000/svg">
<path d="M24 5.3335V9.3335C24 10.0407 23.719 10.719 23.219 11.2191C22.7189 11.7192 22.0406 12.0002 21.3333 12.0002H10.6667C9.95942 12.0002 9.28115 11.7192 8.78105 11.2191C8.28095 10.719 8 10.0407 8 9.3335V5.3335C6.93913 5.3335 5.92172 5.75492 5.17157 6.50507C4.42143 7.25521 4 8.27263 4 9.3335V25.3335C4 26.3944 4.42143 27.4118 5.17157 28.1619C5.92172 28.9121 6.93913 29.3335 8 29.3335H24C25.0609 29.3335 26.0783 28.9121 26.8284 28.1619C27.5786 27.4118 28 26.3944 28 25.3335V9.3335C28 8.27263 27.5786 7.25521 26.8284 6.50507C26.0783 5.75492 25.0609 5.3335 24 5.3335Z" fill="white"/>
<path d="M21.3333 2.6665H10.6667C9.93028 2.6665 9.33333 3.26346 9.33333 3.99984V9.33317C9.33333 10.0696 9.93028 10.6665 10.6667 10.6665H21.3333C22.0697 10.6665 22.6667 10.0696 22.6667 9.33317V3.99984C22.6667 3.26346 22.0697 2.6665 21.3333 2.6665Z" fill="white"/>
</svg>
