<svg width="112" height="112" viewBox="0 0 112 112" fill="none" xmlns="http://www.w3.org/2000/svg">
<g clip-path="url(#clip0_106_2781)">
<path d="M42.0002 51.3333C45.6921 51.3333 49.3011 50.2386 52.3708 48.1874C55.4405 46.1363 57.8331 43.221 59.2459 39.8101C60.6588 36.3992 61.0284 32.646 60.3082 29.025C59.5879 25.404 57.8101 22.0779 55.1995 19.4673C52.5889 16.8568 49.2628 15.0789 45.6418 14.3587C42.0209 13.6384 38.2676 14.0081 34.8567 15.4209C31.4459 16.8338 28.5305 19.2263 26.4794 22.296C24.4283 25.3657 23.3335 28.9748 23.3335 32.6667C23.3335 37.6174 25.3002 42.3653 28.8008 45.866C32.3015 49.3667 37.0495 51.3333 42.0002 51.3333Z" fill="#B2B2B2"/>
<path d="M79.3335 60.6665C82.1024 60.6665 84.8092 59.8454 87.1115 58.3071C89.4138 56.7687 91.2082 54.5822 92.2678 52.0241C93.3274 49.4659 93.6047 46.651 93.0645 43.9352C92.5243 41.2195 91.1909 38.7249 89.233 36.767C87.2751 34.8091 84.7805 33.4757 82.0648 32.9355C79.349 32.3953 76.5341 32.6726 73.9759 33.7322C71.4178 34.7918 69.2313 36.5862 67.6929 38.8885C66.1546 41.1908 65.3335 43.8976 65.3335 46.6665C65.3335 50.3795 66.8085 53.9405 69.434 56.566C72.0595 59.1915 75.6205 60.6665 79.3335 60.6665Z" fill="#B2B2B2"/>
<path d="M98.0002 93.3334C99.2378 93.3334 100.425 92.8418 101.3 91.9666C102.175 91.0914 102.667 89.9044 102.667 88.6668C102.663 84.3053 101.437 80.0321 99.1277 76.3322C96.8183 72.6323 93.5182 69.6536 89.6018 67.7343C85.6853 65.8149 81.3093 65.0317 76.9703 65.4734C72.6312 65.9152 68.5028 67.5642 65.0535 70.2334C60.4825 65.6804 54.6658 62.5829 48.3367 61.3314C42.0076 60.08 35.4497 60.7306 29.4899 63.2014C23.5301 65.6721 18.4354 69.8523 14.8483 75.2148C11.2612 80.5772 9.34222 86.8818 9.3335 93.3334C9.3335 94.5711 9.82516 95.7581 10.7003 96.6333C11.5755 97.5084 12.7625 98.0001 14.0002 98.0001H70.0002C71.2378 98.0001 72.4248 97.5084 73.3 96.6333C74.1752 95.7581 74.6668 94.5711 74.6668 93.3334" fill="#B2B2B2"/>
</g>
<defs>
<clipPath id="clip0_106_2781">
<rect width="112" height="112" fill="white"/>
</clipPath>
</defs>
</svg>
