<svg width="64" height="64" viewBox="0 0 64 64" fill="none" xmlns="http://www.w3.org/2000/svg">
<mask id="mask0_671_9675" style="mask-type:alpha" maskUnits="userSpaceOnUse" x="0" y="0" width="64" height="64">
<circle cx="32" cy="32" r="32" fill="#483698"/>
</mask>
<g mask="url(#mask0_671_9675)">
<circle cx="32" cy="32" r="32" fill="#CC3366"/>
<circle opacity="0.08" cx="44.8002" cy="60.7988" r="39.04" fill="black"/>
</g>
<g clip-path="url(#clip0_671_9675)">
<path d="M32.0001 28.446C33.1815 28.446 34.3364 28.1049 35.3187 27.4658C36.301 26.8266 37.0667 25.9182 37.5188 24.8554C37.9709 23.7926 38.0892 22.6231 37.8587 21.4948C37.6282 20.3665 37.0593 19.3301 36.2239 18.5166C35.3885 17.7032 34.3242 17.1492 33.1655 16.9248C32.0068 16.7003 30.8057 16.8155 29.7142 17.2557C28.6227 17.696 27.6898 18.4415 27.0335 19.398C26.3771 20.3545 26.0268 21.4791 26.0268 22.6295C26.0268 24.1721 26.6561 25.6516 27.7763 26.7424C28.8966 27.8332 30.4159 28.446 32.0001 28.446Z" fill="white"/>
<path d="M40.9601 42.9875C41.3562 42.9875 41.736 42.8343 42.0161 42.5616C42.2962 42.2889 42.4535 41.9191 42.4535 41.5334C42.4535 38.8338 41.3522 36.2447 39.3918 34.3358C37.4314 32.4269 34.7725 31.3545 32.0001 31.3545C29.2278 31.3545 26.5689 32.4269 24.6085 34.3358C22.6481 36.2447 21.5468 38.8338 21.5468 41.5334C21.5468 41.9191 21.7041 42.2889 21.9842 42.5616C22.2643 42.8343 22.6441 42.9875 23.0401 42.9875H40.9601Z" fill="white"/>
</g>
<defs>
<clipPath id="clip0_671_9675">
<rect width="35.84" height="34.8991" fill="white" transform="translate(14.0801 12.4507)"/>
</clipPath>
</defs>
</svg>
