<svg width="20" height="21" viewBox="0 0 20 21" fill="none" xmlns="http://www.w3.org/2000/svg">
<path d="M9.99992 12.1666C10.9204 12.1666 11.6666 11.4205 11.6666 10.5C11.6666 9.57951 10.9204 8.83331 9.99992 8.83331C9.07944 8.83331 8.33325 9.57951 8.33325 10.5C8.33325 11.4205 9.07944 12.1666 9.99992 12.1666Z" fill="#333333"/>
<path d="M9.99992 6.33333C10.9204 6.33333 11.6666 5.58714 11.6666 4.66667C11.6666 3.74619 10.9204 3 9.99992 3C9.07944 3 8.33325 3.74619 8.33325 4.66667C8.33325 5.58714 9.07944 6.33333 9.99992 6.33333Z" fill="#333333"/>
<path d="M9.99992 18C10.9204 18 11.6666 17.2538 11.6666 16.3334C11.6666 15.4129 10.9204 14.6667 9.99992 14.6667C9.07944 14.6667 8.33325 15.4129 8.33325 16.3334C8.33325 17.2538 9.07944 18 9.99992 18Z" fill="#333333"/>
</svg>
