<svg width="40" height="40" viewBox="0 0 40 40" fill="none" xmlns="http://www.w3.org/2000/svg">
<path d="M30 5H10C8.67392 5 7.40215 5.52678 6.46447 6.46447C5.52678 7.40215 5 8.67392 5 10V30C5 31.3261 5.52678 32.5979 6.46447 33.5355C7.40215 34.4732 8.67392 35 10 35H30C31.3261 35 32.5979 34.4732 33.5355 33.5355C34.4732 32.5979 35 31.3261 35 30V10C35 8.67392 34.4732 7.40215 33.5355 6.46447C32.5979 5.52678 31.3261 5 30 5ZM25 21.6667H21.6667V25C21.6667 25.442 21.4911 25.8659 21.1785 26.1785C20.8659 26.4911 20.442 26.6667 20 26.6667C19.558 26.6667 19.134 26.4911 18.8215 26.1785C18.5089 25.8659 18.3333 25.442 18.3333 25V21.6667H15C14.558 21.6667 14.134 21.4911 13.8215 21.1785C13.5089 20.8659 13.3333 20.442 13.3333 20C13.3333 19.558 13.5089 19.134 13.8215 18.8215C14.134 18.5089 14.558 18.3333 15 18.3333H18.3333V15C18.3333 14.558 18.5089 14.134 18.8215 13.8215C19.134 13.5089 19.558 13.3333 20 13.3333C20.442 13.3333 20.8659 13.5089 21.1785 13.8215C21.4911 14.134 21.6667 14.558 21.6667 15V18.3333H25C25.442 18.3333 25.8659 18.5089 26.1785 18.8215C26.4911 19.134 26.6667 19.558 26.6667 20C26.6667 20.442 26.4911 20.8659 26.1785 21.1785C25.8659 21.4911 25.442 21.6667 25 21.6667Z" fill="#1E49E2"/>
</svg>
