<svg width="16" height="16" viewBox="0 0 16 16" fill="none" xmlns="http://www.w3.org/2000/svg">
<path d="M7.99992 1.33337C6.68138 1.33337 5.39245 1.72437 4.29612 2.45691C3.19979 3.18945 2.34531 4.23064 1.84072 5.44882C1.33614 6.66699 1.20412 8.00744 1.46135 9.30064C1.71859 10.5938 2.35353 11.7817 3.28588 12.7141C4.21823 13.6464 5.40611 14.2814 6.69932 14.5386C7.99253 14.7958 9.33297 14.6638 10.5511 14.1592C11.7693 13.6547 12.8105 12.8002 13.5431 11.7038C14.2756 10.6075 14.6666 9.31858 14.6666 8.00004C14.6666 7.12456 14.4942 6.25766 14.1591 5.44882C13.8241 4.63998 13.333 3.90505 12.714 3.286C12.0949 2.66694 11.36 2.17588 10.5511 1.84084C9.74231 1.50581 8.8754 1.33337 7.99992 1.33337ZM7.99992 13.3334C6.94509 13.3334 5.91394 13.0206 5.03688 12.4345C4.15982 11.8485 3.47623 11.0156 3.07256 10.041C2.6689 9.06648 2.56328 7.99412 2.76907 6.95956C2.97485 5.92499 3.48281 4.97468 4.22869 4.2288C4.97457 3.48292 5.92487 2.97497 6.95944 2.76919C7.99401 2.5634 9.06636 2.66902 10.0409 3.07268C11.0154 3.47635 11.8484 4.15994 12.4344 5.037C13.0205 5.91406 13.3333 6.94521 13.3333 8.00004C13.3333 9.41453 12.7714 10.7711 11.7712 11.7713C10.771 12.7715 9.41441 13.3334 7.99992 13.3334Z" fill="#1E49E2"/>
<path d="M9.99992 7.33337H8.66659V6.00004C8.66659 5.82323 8.59635 5.65366 8.47132 5.52864C8.3463 5.40361 8.17673 5.33337 7.99992 5.33337C7.82311 5.33337 7.65354 5.40361 7.52851 5.52864C7.40349 5.65366 7.33325 5.82323 7.33325 6.00004V7.33337H5.99992C5.82311 7.33337 5.65354 7.40361 5.52851 7.52864C5.40349 7.65366 5.33325 7.82323 5.33325 8.00004C5.33325 8.17685 5.40349 8.34642 5.52851 8.47145C5.65354 8.59647 5.82311 8.66671 5.99992 8.66671H7.33325V10C7.33325 10.1769 7.40349 10.3464 7.52851 10.4714C7.65354 10.5965 7.82311 10.6667 7.99992 10.6667C8.17673 10.6667 8.3463 10.5965 8.47132 10.4714C8.59635 10.3464 8.66659 10.1769 8.66659 10V8.66671H9.99992C10.1767 8.66671 10.3463 8.59647 10.4713 8.47145C10.5963 8.34642 10.6666 8.17685 10.6666 8.00004C10.6666 7.82323 10.5963 7.65366 10.4713 7.52864C10.3463 7.40361 10.1767 7.33337 9.99992 7.33337Z" fill="#1E49E2"/>
</svg>
