<svg width="72" height="72" viewBox="0 0 72 72" fill="none" xmlns="http://www.w3.org/2000/svg">
<circle cx="36" cy="36" r="36" fill="#FAF6E9"/>
<path d="M36 50C37.656 50 39 51.344 39 53C39 54.656 37.656 56 36 56C34.344 56 33 54.656 33 53C33 51.344 34.344 50 36 50ZM36 16C42.628 16 48 21.372 48 28C48 32.33 46.494 34.58 42.652 37.846C38.798 41.12 38 42.594 38 46H34C34 41.052 35.574 38.61 40.062 34.798C43.096 32.22 44 30.868 44 28C44 23.58 40.42 20 36 20C31.58 20 28 23.58 28 28V30H24V28C24 21.372 29.372 16 36 16Z" fill="#CD9E20"/>
</svg>
