<svg width="32" height="32" viewBox="0 0 32 32" fill="none" xmlns="http://www.w3.org/2000/svg">
<path d="M4.32 9.72002L15.68 15.8934C15.7785 15.9459 15.8884 15.9734 16 15.9734C16.1116 15.9734 16.2215 15.9459 16.32 15.8934L27.68 9.72002C27.7836 9.66884 27.8699 9.58817 27.9278 9.48816C27.9858 9.38814 28.0129 9.27323 28.0058 9.15785C27.9987 9.04248 27.9576 8.93177 27.8878 8.83965C27.818 8.74752 27.7225 8.67807 27.6133 8.64002L16.2533 4.00002C16.091 3.93334 15.909 3.93334 15.7467 4.00002L4.38666 8.64002C4.27751 8.67807 4.18203 8.74752 4.1122 8.83965C4.04238 8.93177 4.00133 9.04248 3.99421 9.15785C3.98709 9.27323 4.01421 9.38814 4.07217 9.48816C4.13013 9.58817 4.21635 9.66884 4.32 9.72002Z" fill="white"/>
<path d="M27.6133 14.2133L25.1733 13.1733L16.32 17.9867C16.2215 18.0392 16.1116 18.0667 16 18.0667C15.8884 18.0667 15.7785 18.0392 15.68 17.9867L6.82666 13.1733L4.38667 14.2133C4.28333 14.2676 4.1968 14.3491 4.13642 14.4489C4.07605 14.5488 4.04414 14.6633 4.04414 14.78C4.04414 14.8967 4.07605 15.0112 4.13642 15.1111C4.1968 15.211 4.28333 15.2924 4.38667 15.3467L15.7467 21.88C15.843 21.9389 15.9537 21.9701 16.0667 21.9701C16.1796 21.9701 16.2903 21.9389 16.3867 21.88L27.7467 15.3467C27.845 15.2812 27.9233 15.1898 27.9729 15.0826C28.0226 14.9753 28.0415 14.8564 28.0277 14.7391C28.0139 14.6218 27.9679 14.5105 27.8947 14.4177C27.8216 14.3249 27.7242 14.2542 27.6133 14.2133Z" fill="white"/>
<path d="M27.6133 20.1334L25.5333 19.2267L16.32 24.24C16.2215 24.2925 16.1116 24.32 16 24.32C15.8884 24.32 15.7785 24.2925 15.68 24.24L6.46667 19.2267L4.38667 20.1334C4.2804 20.1885 4.19132 20.2717 4.12914 20.374C4.06696 20.4763 4.03407 20.5937 4.03407 20.7134C4.03407 20.8331 4.06696 20.9505 4.12914 21.0527C4.19132 21.155 4.2804 21.2383 4.38667 21.2934L15.7467 27.96C15.8452 28.0125 15.9551 28.04 16.0667 28.04C16.1783 28.04 16.2882 28.0125 16.3867 27.96L27.7467 21.2934C27.848 21.227 27.9289 21.1337 27.9803 21.0241C28.0317 20.9144 28.0516 20.7926 28.0377 20.6722C28.0239 20.5519 27.9769 20.4378 27.9019 20.3426C27.827 20.2475 27.7271 20.175 27.6133 20.1334Z" fill="white"/>
</svg>
