<svg width="24" height="22" viewBox="0 0 24 22" fill="none" xmlns="http://www.w3.org/2000/svg">
<path d="M3.65941 17.6H6.08046V19.8H20.6068V2.2H6.08046V4.4H3.65941V1.1C3.65941 0.808262 3.78695 0.528472 4.01397 0.322183C4.24098 0.115892 4.54889 0 4.86994 0H21.8173C22.1384 0 22.4463 0.115892 22.6733 0.322183C22.9003 0.528472 23.0278 0.808262 23.0278 1.1V20.9C23.0278 21.1917 22.9003 21.4715 22.6733 21.6778C22.4463 21.8841 22.1384 22 21.8173 22H4.86994C4.54889 22 4.24098 21.8841 4.01397 21.6778C3.78695 21.4715 3.65941 21.1917 3.65941 20.9V17.6ZM6.08046 9.9H14.5541V12.1H6.08046V15.4L0.027832 11L6.08046 6.6V9.9Z" fill="white"/>
</svg>
