<svg width="24" height="24" viewBox="0 0 24 24" fill="none" xmlns="http://www.w3.org/2000/svg">
<path d="M3.23981 7.28991L11.7598 11.9199C11.8337 11.9593 11.9161 11.9799 11.9998 11.9799C12.0835 11.9799 12.1659 11.9593 12.2398 11.9199L20.7598 7.28991C20.8375 7.25152 20.9022 7.19102 20.9457 7.11601C20.9891 7.041 21.0095 6.95482 21.0041 6.86828C20.9988 6.78175 20.968 6.69872 20.9157 6.62963C20.8633 6.56053 20.7917 6.50845 20.7098 6.47991L12.1898 2.99991C12.0681 2.9499 11.9315 2.9499 11.8098 2.99991L3.28981 6.47991C3.20794 6.50845 3.13633 6.56053 3.08396 6.62963C3.03159 6.69872 3.00081 6.78175 2.99546 6.86828C2.99012 6.95482 3.01047 7.041 3.05394 7.11601C3.09741 7.19102 3.16207 7.25152 3.23981 7.28991Z" fill="white"/>
<path d="M20.7101 10.6599L18.8801 9.87988L12.2401 13.4899C12.1662 13.5293 12.0838 13.5499 12.0001 13.5499C11.9164 13.5499 11.834 13.5293 11.7601 13.4899L5.1201 9.87988L3.2901 10.6599C3.2126 10.7006 3.1477 10.7617 3.10242 10.8366C3.05714 10.9115 3.0332 10.9974 3.0332 11.0849C3.0332 11.1724 3.05714 11.2583 3.10242 11.3332C3.1477 11.4081 3.2126 11.4692 3.2901 11.5099L11.8101 16.4099C11.8824 16.4541 11.9654 16.4775 12.0501 16.4775C12.1348 16.4775 12.2178 16.4541 12.2901 16.4099L20.8101 11.5099C20.8839 11.4608 20.9426 11.3922 20.9798 11.3118C21.017 11.2314 21.0312 11.1422 21.0209 11.0542C21.0105 10.9662 20.976 10.8828 20.9212 10.8132C20.8663 10.7436 20.7932 10.6905 20.7101 10.6599Z" fill="white"/>
<path d="M20.7098 15.0999L19.1498 14.4199L12.2398 18.1799C12.166 18.2193 12.0835 18.2399 11.9998 18.2399C11.9161 18.2399 11.8337 18.2193 11.7598 18.1799L4.84984 14.4199L3.28984 15.0999C3.21014 15.1412 3.14332 15.2037 3.09669 15.2804C3.05005 15.3571 3.02539 15.4451 3.02539 15.5349C3.02539 15.6247 3.05005 15.7127 3.09669 15.7895C3.14332 15.8662 3.21014 15.9286 3.28984 15.9699L11.8098 20.9699C11.8837 21.0093 11.9661 21.0299 12.0498 21.0299C12.1335 21.0299 12.216 21.0093 12.2898 20.9699L20.8098 15.9699C20.8858 15.9201 20.9465 15.8502 20.985 15.768C21.0236 15.6857 21.0385 15.5943 21.0281 15.5041C21.0178 15.4138 20.9825 15.3282 20.9263 15.2569C20.8701 15.1855 20.7951 15.1312 20.7098 15.0999Z" fill="white"/>
</svg>
