<svg width="16" height="16" viewBox="0 0 16 16" fill="none" xmlns="http://www.w3.org/2000/svg">
<path d="M4.66675 14H11.3334V4.66667H10.6667V3.66667C10.6667 3.22464 10.4912 2.80072 10.1786 2.48816C9.86603 2.17559 9.44211 2 9.00008 2H7.00008C6.55805 2 6.13413 2.17559 5.82157 2.48816C5.50901 2.80072 5.33341 3.22464 5.33341 3.66667V4.66667H4.66675V14ZM6.66675 3.66667C6.66675 3.57826 6.70187 3.49348 6.76438 3.43096C6.82689 3.36845 6.91168 3.33333 7.00008 3.33333H9.00008C9.08849 3.33333 9.17327 3.36845 9.23578 3.43096C9.2983 3.49348 9.33341 3.57826 9.33341 3.66667V4.66667H6.66675V3.66667Z" fill="#00338D"/>
<path d="M12.6667 4.66675V14.0001C13.1972 14.0001 13.7059 13.7894 14.081 13.4143C14.456 13.0392 14.6667 12.5305 14.6667 12.0001V6.66675C14.6667 6.13632 14.456 5.62761 14.081 5.25253C13.7059 4.87746 13.1972 4.66675 12.6667 4.66675Z" fill="#00338D"/>
<path d="M3.33325 4.66675C2.80282 4.66675 2.29411 4.87746 1.91904 5.25253C1.54397 5.62761 1.33325 6.13632 1.33325 6.66675V12.0001C1.33325 12.5305 1.54397 13.0392 1.91904 13.4143C2.29411 13.7894 2.80282 14.0001 3.33325 14.0001V4.66675Z" fill="#00338D"/>
</svg>
