<svg width="16" height="16" viewBox="0 0 16 16" fill="none" xmlns="http://www.w3.org/2000/svg">
<path d="M12 2.66663V4.66663C12 5.02025 11.8595 5.35939 11.6095 5.60943C11.3594 5.85948 11.0203 5.99996 10.6667 5.99996H5.33333C4.97971 5.99996 4.64057 5.85948 4.39052 5.60943C4.14048 5.35939 4 5.02025 4 4.66663V2.66663C3.46957 2.66663 2.96086 2.87734 2.58579 3.25241C2.21071 3.62749 2 4.13619 2 4.66663V12.6666C2 13.1971 2.21071 13.7058 2.58579 14.0808C2.96086 14.4559 3.46957 14.6666 4 14.6666H12C12.5304 14.6666 13.0391 14.4559 13.4142 14.0808C13.7893 13.7058 14 13.1971 14 12.6666V4.66663C14 4.13619 13.7893 3.62749 13.4142 3.25241C13.0391 2.87734 12.5304 2.66663 12 2.66663Z" fill="#00338D"/>
<path d="M10.6667 1.33337H5.33341C4.96522 1.33337 4.66675 1.63185 4.66675 2.00004V4.66671C4.66675 5.0349 4.96522 5.33337 5.33341 5.33337H10.6667C11.0349 5.33337 11.3334 5.0349 11.3334 4.66671V2.00004C11.3334 1.63185 11.0349 1.33337 10.6667 1.33337Z" fill="#00338D"/>
</svg>
