<svg width="16" height="16" viewBox="0 0 16 16" fill="none" xmlns="http://www.w3.org/2000/svg">
<path d="M7.99992 7.33333C8.52734 7.33333 9.04291 7.17694 9.48144 6.88392C9.91997 6.5909 10.2618 6.17443 10.4636 5.68716C10.6654 5.19989 10.7182 4.66371 10.6153 4.14643C10.5125 3.62914 10.2585 3.15399 9.88554 2.78105C9.5126 2.40811 9.03744 2.15413 8.52016 2.05124C8.00288 1.94835 7.4667 2.00116 6.97943 2.20299C6.49216 2.40482 6.07568 2.74662 5.78267 3.18515C5.48965 3.62368 5.33325 4.13925 5.33325 4.66667C5.33325 5.37391 5.6142 6.05219 6.1143 6.55229C6.6144 7.05238 7.29267 7.33333 7.99992 7.33333Z" fill="#00338D"/>
<path d="M11.9999 13.9998C12.1767 13.9998 12.3463 13.9296 12.4713 13.8046C12.5963 13.6796 12.6666 13.51 12.6666 13.3332C12.6666 12.0955 12.1749 10.9085 11.2998 10.0333C10.4246 9.15817 9.2376 8.6665 7.99992 8.6665C6.76224 8.6665 5.57526 9.15817 4.70009 10.0333C3.82492 10.9085 3.33325 12.0955 3.33325 13.3332C3.33325 13.51 3.40349 13.6796 3.52851 13.8046C3.65354 13.9296 3.82311 13.9998 3.99992 13.9998H11.9999Z" fill="#00338D"/>
</svg>
