<svg width="16" height="16" viewBox="0 0 16 16" fill="none" xmlns="http://www.w3.org/2000/svg">
<path d="M12 2.66675V4.66675C12 5.02037 11.8595 5.35951 11.6095 5.60956C11.3594 5.85961 11.0203 6.00008 10.6667 6.00008H5.33333C4.97971 6.00008 4.64057 5.85961 4.39052 5.60956C4.14048 5.35951 4 5.02037 4 4.66675V2.66675C3.46957 2.66675 2.96086 2.87746 2.58579 3.25253C2.21071 3.62761 2 4.13632 2 4.66675V12.6667C2 13.1972 2.21071 13.7059 2.58579 14.081C2.96086 14.456 3.46957 14.6667 4 14.6667H12C12.5304 14.6667 13.0391 14.456 13.4142 14.081C13.7893 13.7059 14 13.1972 14 12.6667V4.66675C14 4.13632 13.7893 3.62761 13.4142 3.25253C13.0391 2.87746 12.5304 2.66675 12 2.66675Z" fill="#00338D"/>
<path d="M10.6667 1.33325H5.33333C4.96514 1.33325 4.66666 1.63173 4.66666 1.99992V4.66659C4.66666 5.03478 4.96514 5.33325 5.33333 5.33325H10.6667C11.0349 5.33325 11.3333 5.03478 11.3333 4.66659V1.99992C11.3333 1.63173 11.0349 1.33325 10.6667 1.33325Z" fill="#00338D"/>
</svg>
